# xmcd
#
# Track frame offsets:
#	150
#	9830
#	28425
#	39390
#	49030
#	56143
#	74769
#	85901
#	100469
#	123031
#	134625
#	139345
#	153866
#	168919
#	178317
#	192816
#	207074
#	221194
#	236916
#
# Disc length: 3328 seconds
#
# Revision: 1
# Processed by: cddbd v1.5.2PL0 Copyright (c) Steve Scherf et al.
# Submitted via: audiograbber 1.83.01
#
DISCID=1d0cfe13
DTITLE=The Prairie Heirs  - Palo Duro
DYEAR=1900
DGENRE=
TTITLE0=Old Joe Clark
TTITLE1=Great American Cowboy
TTITLE2=Ten Pritty Girls
TTITLE3=Whoopee Ti Yi To
TTITLE4=The girl I left behind me
TTITLE5=Abbey´s Song
TTITLE6=Cotton eyd Joe/The Scottish
TTITLE7=Reed River Valley
TTITLE8=Say goodbye to Montana
TTITLE9=Ashokan´s Farewell
TTITLE10=Amazing grace
TTITLE11=Ride an old paint
TTITLE12=Ridin down the canyon
TTITLE13=Jesse Polka
TTITLE14=Song of Wyoming
TTITLE15=Westphalia Waltz
TTITLE16=I want to be a cowboy´s sweetheart
TTITLE17=Si Bheag Si MHor
TTITLE18=Dixie
EXTD=
EXTT0=
EXTT1=
EXTT2=
EXTT3=
EXTT4=
EXTT5=
EXTT6=
EXTT7=
EXTT8=
EXTT9=
EXTT10=
EXTT11=
EXTT12=
EXTT13=
EXTT14=
EXTT15=
EXTT16=
EXTT17=
EXTT18=
PLAYORDER=
